<svg xmlns="http://www.w3.org/2000/svg" zoomAndPan="magnify" viewBox="254.0 0 808 808" preserveAspectRatio="xMidYMid meet" version="1.0"><defs><clipPath id="d4c153187d"><path d="M 0.078125 0.960938 L 807.679688 0.960938 L 807.679688 808.800781 L 0.078125 808.800781 Z M 0.078125 0.960938 " clip-rule="nonzero" /></clipPath><clipPath id="252632cabe"><path d="M 0.113281 1.128906 L 807.554688 1.128906 L 807.554688 808.574219 L 0.113281 808.574219 Z M 0.113281 1.128906 " clip-rule="nonzero" /></clipPath><clipPath id="4ba2c35db6"><path d="M 0.113281 0.128906 L 807.554688 0.128906 L 807.554688 807.574219 L 0.113281 0.128906 " clip-rule="nonzero" /></clipPath><clipPath id="b65167547b"><rect x="0" width="808" y="0" height="808" /></clipPath><clipPath id="90214457be"><rect x="0" width="808" y="0" height="809" /></clipPath><clipPath id="d5a02d1df4"><path d="M 0.871094 3 L 556.796875 3 L 556.796875 644 L 0.871094 644 Z M 0.871094 3 " clip-rule="nonzero" /></clipPath><clipPath id="4fdc05d8a8"><path d="M 289.886719 6.832031 L 545.742188 155.695312 C 552.585938 159.679688 556.796875 166.996094 556.796875 174.914062 L 556.796875 472.789062 C 556.796875 480.703125 552.585938 488.023438 545.742188 492.007812 L 289.886719 640.867188 C 283.054688 644.84375 274.613281 644.84375 267.78125 640.867188 L 11.921875 492.007812 C 5.078125 488.023438 0.871094 480.703125 0.871094 472.789062 L 0.871094 174.914062 C 0.871094 166.996094 5.078125 159.679688 11.921875 155.695312 L 267.78125 6.832031 C 274.613281 2.859375 283.054688 2.859375 289.886719 6.832031 Z M 289.886719 6.832031 " clip-rule="nonzero" /></clipPath><clipPath id="0c0760c2ea"><path d="M 0.871094 0 L 556.796875 0 L 556.796875 641 L 0.871094 641 Z M 0.871094 0 " clip-rule="nonzero" /></clipPath><clipPath id="d0c81b507c"><path d="M 289.886719 3.832031 L 545.742188 152.695312 C 552.585938 156.679688 556.796875 163.996094 556.796875 171.914062 L 556.796875 469.789062 C 556.796875 477.703125 552.585938 485.023438 545.742188 489.007812 L 289.886719 637.867188 C 283.054688 641.84375 274.613281 641.84375 267.78125 637.867188 L 11.921875 489.007812 C 5.078125 485.023438 0.871094 477.703125 0.871094 469.789062 L 0.871094 171.914062 C 0.871094 163.996094 5.078125 156.679688 11.921875 152.695312 L 267.78125 3.832031 C 274.613281 -0.140625 283.054688 -0.140625 289.886719 3.832031 Z M 289.886719 3.832031 " clip-rule="nonzero" /></clipPath><clipPath id="c4012ccf9f"><rect x="0" width="557" y="0" height="641" /></clipPath><clipPath id="e5cdc5a958"><rect x="0" width="557" y="0" height="648" /></clipPath><clipPath id="53988e7187"><path d="M 0.105469 3.785156 L 423.558594 3.785156 L 423.558594 490 L 0.105469 490 Z M 0.105469 3.785156 " clip-rule="nonzero" /></clipPath><clipPath id="09eaa4a4d9"><path d="M 222.886719 6.910156 L 412.507812 117.234375 C 419.347656 121.214844 423.558594 128.535156 423.558594 136.453125 L 423.558594 357.25 C 423.558594 365.167969 419.347656 372.488281 412.507812 376.46875 L 222.886719 486.792969 C 216.054688 490.769531 207.613281 490.769531 200.78125 486.792969 L 11.160156 376.46875 C 4.316406 372.488281 0.105469 365.167969 0.105469 357.25 L 0.105469 136.453125 C 0.105469 128.535156 4.316406 121.214844 11.160156 117.234375 L 200.78125 6.910156 C 207.613281 2.933594 216.054688 2.933594 222.886719 6.910156 Z M 222.886719 6.910156 " clip-rule="nonzero" /></clipPath><clipPath id="40a725c474"><path d="M 0.105469 0.785156 L 423.558594 0.785156 L 423.558594 487 L 0.105469 487 Z M 0.105469 0.785156 " clip-rule="nonzero" /></clipPath><clipPath id="0716b38913"><path d="M 222.886719 3.910156 L 412.507812 114.234375 C 419.347656 118.214844 423.558594 125.535156 423.558594 133.453125 L 423.558594 354.25 C 423.558594 362.167969 419.347656 369.488281 412.507812 373.46875 L 222.886719 483.792969 C 216.054688 487.769531 207.613281 487.769531 200.78125 483.792969 L 11.160156 373.46875 C 4.316406 369.488281 0.105469 362.167969 0.105469 354.25 L 0.105469 133.453125 C 0.105469 125.535156 4.316406 118.214844 11.160156 114.234375 L 200.78125 3.910156 C 207.613281 -0.0664062 216.054688 -0.0664062 222.886719 3.910156 Z M 222.886719 3.910156 " clip-rule="nonzero" /></clipPath><clipPath id="520d86d1fc"><rect x="0" width="424" y="0" height="487" /></clipPath><clipPath id="e701954472"><rect x="0" width="424" y="0" height="494" /></clipPath><clipPath id="72271c19c6"><path d="M 0.0820312 4 L 299.582031 4 L 299.582031 345.726562 L 0.0820312 345.726562 Z M 0.0820312 4 " clip-rule="nonzero" /></clipPath><clipPath id="f592d237e2"><path d="M 160.886719 7.027344 L 288.53125 81.292969 C 295.375 85.273438 299.582031 92.59375 299.582031 100.511719 L 299.582031 249.191406 C 299.582031 257.109375 295.375 264.429688 288.53125 268.410156 L 160.886719 342.675781 C 154.054688 346.652344 145.613281 346.652344 138.78125 342.675781 L 11.132812 268.410156 C 4.292969 264.429688 0.0820312 257.109375 0.0820312 249.191406 L 0.0820312 100.511719 C 0.0820312 92.59375 4.292969 85.273438 11.132812 81.292969 L 138.78125 7.027344 C 145.613281 3.050781 154.054688 3.050781 160.886719 7.027344 Z M 160.886719 7.027344 " clip-rule="nonzero" /></clipPath><clipPath id="0a29f57b44"><path d="M 0.0820312 0 L 299.582031 0 L 299.582031 341.726562 L 0.0820312 341.726562 Z M 0.0820312 0 " clip-rule="nonzero" /></clipPath><clipPath id="35131cc87a"><path d="M 160.886719 3.027344 L 288.53125 77.292969 C 295.375 81.273438 299.582031 88.59375 299.582031 96.511719 L 299.582031 245.191406 C 299.582031 253.109375 295.375 260.429688 288.53125 264.410156 L 160.886719 338.675781 C 154.054688 342.652344 145.613281 342.652344 138.78125 338.675781 L 11.132812 264.410156 C 4.292969 260.429688 0.0820312 253.109375 0.0820312 245.191406 L 0.0820312 96.511719 C 0.0820312 88.59375 4.292969 81.273438 11.132812 77.292969 L 138.78125 3.027344 C 145.613281 -0.949219 154.054688 -0.949219 160.886719 3.027344 Z M 160.886719 3.027344 " clip-rule="nonzero" /></clipPath><clipPath id="f7f3f2fef8"><rect x="0" width="300" y="0" height="342" /></clipPath><clipPath id="962db906f2"><rect x="0" width="300" y="0" height="350" /></clipPath><clipPath id="a9843ecde4"><path d="M 0.832031 0.773438 L 384.992188 0.773438 L 384.992188 384.929688 L 0.832031 384.929688 Z M 0.832031 0.773438 " clip-rule="nonzero" /></clipPath><clipPath id="1aff998d72"><path d="M 192.914062 0.773438 C 86.828125 0.773438 0.832031 86.769531 0.832031 192.851562 C 0.832031 298.933594 86.828125 384.929688 192.914062 384.929688 C 298.996094 384.929688 384.992188 298.933594 384.992188 192.851562 C 384.992188 86.769531 298.996094 0.773438 192.914062 0.773438 Z M 192.914062 0.773438 " clip-rule="nonzero" /></clipPath><clipPath id="ff3b66b278"><path d="M 0.832031 0.773438 L 384.992188 0.773438 L 384.992188 384.929688 L 0.832031 384.929688 Z M 0.832031 0.773438 " clip-rule="nonzero" /></clipPath><clipPath id="baf08eab5b"><path d="M 192.914062 0.773438 C 86.828125 0.773438 0.832031 86.769531 0.832031 192.851562 C 0.832031 298.933594 86.828125 384.929688 192.914062 384.929688 C 298.996094 384.929688 384.992188 298.933594 384.992188 192.851562 C 384.992188 86.769531 298.996094 0.773438 192.914062 0.773438 Z M 192.914062 0.773438 " clip-rule="nonzero" /></clipPath><clipPath id="87d58bc3c4"><rect x="0" width="385" y="0" height="385" /></clipPath><clipPath id="9c3fac6992"><rect x="0" width="385" y="0" height="386" /></clipPath><clipPath id="3de00b71fc"><path d="M 0.359375 0.296875 L 315.464844 0.296875 L 315.464844 315.40625 L 0.359375 315.40625 Z M 0.359375 0.296875 " clip-rule="nonzero" /></clipPath><clipPath id="8d3ab4e582"><path d="M 157.914062 0.296875 C 70.898438 0.296875 0.359375 70.835938 0.359375 157.851562 C 0.359375 244.867188 70.898438 315.40625 157.914062 315.40625 C 244.925781 315.40625 315.464844 244.867188 315.464844 157.851562 C 315.464844 70.835938 244.925781 0.296875 157.914062 0.296875 " clip-rule="nonzero" /></clipPath><clipPath id="bc04b449ad"><path d="M 0.359375 0.296875 L 315.464844 0.296875 L 315.464844 315.40625 L 0.359375 315.40625 Z M 0.359375 0.296875 " clip-rule="nonzero" /></clipPath><clipPath id="dc73bdee1c"><path d="M 157.914062 0.296875 C 70.898438 0.296875 0.359375 70.835938 0.359375 157.851562 C 0.359375 244.867188 70.898438 315.40625 157.914062 315.40625 C 244.925781 315.40625 315.464844 244.867188 315.464844 157.851562 C 315.464844 70.835938 244.925781 0.296875 157.914062 0.296875 Z M 157.914062 0.296875 " clip-rule="nonzero" /></clipPath><clipPath id="d30c1705d0"><rect x="0" width="316" y="0" height="316" /></clipPath><clipPath id="d3f4add4ae"><rect x="0" width="316" y="0" height="316" /></clipPath><clipPath id="e5029eb063"><rect x="0" width="808" y="0" height="809" /></clipPath><mask id="mask-light-standalone"><rect x="-5000" y="-5000" width="10000" height="10000" fill="white" /><g transform="matrix(1, 0, 0, 1, 254, 230)"><g clip-path="url(#962db906f2)"><g clip-path="url(#72271c19c6)"><g clip-path="url(#f592d237e2)"><g transform="matrix(1, 0, 0, 1, 0, 4)"><g clip-path="url(#f7f3f2fef8)"><g clip-path="url(#0a29f57b44)"><g clip-path="url(#35131cc87a)"><path fill="#000000" d="M 0.0820312 -3.40625 L 299.582031 -3.40625 L 299.582031 345.234375 L 0.0820312 345.234375 Z M 0.0820312 -3.40625 " fill-opacity="1" fill-rule="nonzero" /></g></g></g></g></g></g></g></g><g transform="matrix(1, 0, 0, 1, 403, 212)"><g clip-path="url(#9c3fac6992)"><g clip-path="url(#a9843ecde4)"><g clip-path="url(#1aff998d72)"><g transform="matrix(1, 0, 0, 1, 0, 0)"><g clip-path="url(#87d58bc3c4)"><g clip-path="ff3b66b278"><g clip-path="url(#baf08eab5b)"><path fill="#000000" d="M 0.832031 0.773438 L 384.992188 0.773438 L 384.992188 384.929688 L 0.832031 384.929688 Z M 0.832031 0.773438 " fill-opacity="1" fill-rule="nonzero" /></g></g></g></g></g></g></g></g></mask></defs><g transform="matrix(1, 0, 0, 1, 316, 0.000000000000039746)"><g clip-path="url(#e5029eb063)"><g mask="url(#mask-light-standalone)"><g transform="matrix(1, 0, 0, 1, 125, 81)"><g clip-path="url(#e5cdc5a958)"><g clip-path="url(#d5a02d1df4)"><g clip-path="url(#4fdc05d8a8)"><g transform="matrix(1, 0, 0, 1, 0, 3)"><g clip-path="url(#c4012ccf9f)"><g clip-path="url(#0c0760c2ea)"><g clip-path="url(#d0c81b507c)"><path fill="#000000" d="M 0.871094 -2.597656 L 556.796875 -2.597656 L 556.796875 644.535156 L 0.871094 644.535156 Z M 0.871094 -2.597656 " fill-opacity="1" fill-rule="nonzero" /></g></g></g></g></g></g></g></g><g transform="matrix(1, 0, 0, 1, 192, 158)"><g clip-path="url(#e701954472)"><g clip-path="url(#53988e7187)"><g clip-path="url(#09eaa4a4d9)"><g transform="matrix(1, 0, 0, 1, 0, 3)"><g clip-path="url(#520d86d1fc)"><g clip-path="url(#40a725c474)"><g clip-path="url(#0716b38913)"><path fill="#7f7f7f" d="M 0.105469 -2.519531 L 423.558594 -2.519531 L 423.558594 490.402344 L 0.105469 490.402344 Z M 0.105469 -2.519531 " fill-opacity="1" fill-rule="nonzero" /></g></g></g></g></g></g></g></g></g><g transform="matrix(1, 0, 0, 1, 438, 247)"><g clip-path="url(#d3f4add4ae)"><g clip-path="url(#3de00b71fc)"><g clip-path="url(#8d3ab4e582)"><g transform="matrix(1, 0, 0, 1, 0, 0)"><g clip-path="url(#d30c1705d0)"><g clip-path="url(#bc04b449ad)"><g clip-path="url(#dc73bdee1c)"><path fill="#000000" d="M 0.359375 0.296875 L 315.464844 0.296875 L 315.464844 315.40625 L 0.359375 315.40625 Z M 0.359375 0.296875 " fill-opacity="1" fill-rule="nonzero" /></g></g></g></g></g></g></g></g></g></g></svg>
