<svg xmlns="http://www.w3.org/2000/svg" xmlns:xlink="http://www.w3.org/1999/xlink" zoomAndPan="magnify" viewBox="0 0 1440 809.999993" preserveAspectRatio="xMidYMid meet" version="1.0">
  <defs>
    <clipPath id="63f6d6ba90"><path d="M 0.078125 0.960938 L 807.679688 0.960938 L 807.679688 808.800781 L 0.078125 808.800781 Z M 0.078125 0.960938 " clip-rule="nonzero"/></clipPath>
    <clipPath id="e0ae939c96"><path d="M 0.113281 1.128906 L 807.554688 1.128906 L 807.554688 808.574219 L 0.113281 808.574219 Z M 0.113281 1.128906 " clip-rule="nonzero"/></clipPath>
    <clipPath id="a50d34f01b"><path d="M 0.113281 0.128906 L 807.554688 0.128906 L 807.554688 807.574219 L 0.113281 0.128906 " clip-rule="nonzero"/></clipPath>
    <clipPath id="1cd515563d"><rect x="0" width="808" y="0" height="808"/></clipPath>
    <clipPath id="0a15e8485d"><rect x="0" width="808" y="0" height="809"/></clipPath>
    <clipPath id="e7b566810a"><path d="M 0.871094 3 L 556.796875 3 L 556.796875 644 L 0.871094 644 Z M 0.871094 3 " clip-rule="nonzero"/></clipPath>
    <clipPath id="8038e30305"><path d="M 289.886719 6.832031 L 545.742188 155.695312 C 552.585938 159.679688 556.796875 166.996094 556.796875 174.914062 L 556.796875 472.789062 C 556.796875 480.703125 552.585938 488.023438 545.742188 492.007812 L 289.886719 640.867188 C 283.054688 644.84375 274.613281 644.84375 267.78125 640.867188 L 11.921875 492.007812 C 5.078125 488.023438 0.871094 480.703125 0.871094 472.789062 L 0.871094 174.914062 C 0.871094 166.996094 5.078125 159.679688 11.921875 155.695312 L 267.78125 6.832031 C 274.613281 2.859375 283.054688 2.859375 289.886719 6.832031 Z M 289.886719 6.832031 " clip-rule="nonzero"/></clipPath>
    <clipPath id="0924fdde32"><path d="M 0.871094 0 L 556.796875 0 L 556.796875 641 L 0.871094 641 Z M 0.871094 0 " clip-rule="nonzero"/></clipPath>
    <clipPath id="67a91a1c9b"><path d="M 289.886719 3.832031 L 545.742188 152.695312 C 552.585938 156.679688 556.796875 163.996094 556.796875 171.914062 L 556.796875 469.789062 C 556.796875 477.703125 552.585938 485.023438 545.742188 489.007812 L 289.886719 637.867188 C 283.054688 641.84375 274.613281 641.84375 267.78125 637.867188 L 11.921875 489.007812 C 5.078125 485.023438 0.871094 477.703125 0.871094 469.789062 L 0.871094 171.914062 C 0.871094 163.996094 5.078125 156.679688 11.921875 152.695312 L 267.78125 3.832031 C 274.613281 -0.140625 283.054688 -0.140625 289.886719 3.832031 Z M 289.886719 3.832031 " clip-rule="nonzero"/></clipPath>
    <clipPath id="f80d67a1dc"><rect x="0" width="557" y="0" height="641"/></clipPath>
    <clipPath id="97244c3cd6"><rect x="0" width="557" y="0" height="648"/></clipPath>
    <clipPath id="b1af217f49"><path d="M 0.105469 3.785156 L 423.558594 3.785156 L 423.558594 490 L 0.105469 490 Z M 0.105469 3.785156 " clip-rule="nonzero"/></clipPath>
    <clipPath id="174f4bdc85"><path d="M 222.886719 6.910156 L 412.507812 117.234375 C 419.347656 121.214844 423.558594 128.535156 423.558594 136.453125 L 423.558594 357.25 C 423.558594 365.167969 419.347656 372.488281 412.507812 376.46875 L 222.886719 486.792969 C 216.054688 490.769531 207.613281 490.769531 200.78125 486.792969 L 11.160156 376.46875 C 4.316406 372.488281 0.105469 365.167969 0.105469 357.25 L 0.105469 136.453125 C 0.105469 128.535156 4.316406 121.214844 11.160156 117.234375 L 200.78125 6.910156 C 207.613281 2.933594 216.054688 2.933594 222.886719 6.910156 Z M 222.886719 6.910156 " clip-rule="nonzero"/></clipPath>
    <clipPath id="8b196be77b"><path d="M 0.105469 0.785156 L 423.558594 0.785156 L 423.558594 487 L 0.105469 487 Z M 0.105469 0.785156 " clip-rule="nonzero"/></clipPath>
    <clipPath id="50037ce33e"><path d="M 222.886719 3.910156 L 412.507812 114.234375 C 419.347656 118.214844 423.558594 125.535156 423.558594 133.453125 L 423.558594 354.25 C 423.558594 362.167969 419.347656 369.488281 412.507812 373.46875 L 222.886719 483.792969 C 216.054688 487.769531 207.613281 487.769531 200.78125 483.792969 L 11.160156 373.46875 C 4.316406 369.488281 0.105469 362.167969 0.105469 354.25 L 0.105469 133.453125 C 0.105469 125.535156 4.316406 118.214844 11.160156 114.234375 L 200.78125 3.910156 C 207.613281 -0.0664062 216.054688 -0.0664062 222.886719 3.910156 Z M 222.886719 3.910156 " clip-rule="nonzero"/></clipPath>
    <clipPath id="7e607f551a"><rect x="0" width="424" y="0" height="487"/></clipPath>
    <clipPath id="2ec8540957"><rect x="0" width="424" y="0" height="494"/></clipPath>
    <clipPath id="22b9c6f5ab"><path d="M 0.0820312 4 L 299.582031 4 L 299.582031 345.726562 L 0.0820312 345.726562 Z M 0.0820312 4 " clip-rule="nonzero"/></clipPath>
    <clipPath id="9a3b736deb"><path d="M 160.886719 7.027344 L 288.53125 81.292969 C 295.375 85.273438 299.582031 92.59375 299.582031 100.511719 L 299.582031 249.191406 C 299.582031 257.109375 295.375 264.429688 288.53125 268.410156 L 160.886719 342.675781 C 154.054688 346.652344 145.613281 346.652344 138.78125 342.675781 L 11.132812 268.410156 C 4.292969 264.429688 0.0820312 257.109375 0.0820312 249.191406 L 0.0820312 100.511719 C 0.0820312 92.59375 4.292969 85.273438 11.132812 81.292969 L 138.78125 7.027344 C 145.613281 3.050781 154.054688 3.050781 160.886719 7.027344 Z M 160.886719 7.027344 " clip-rule="nonzero"/></clipPath>
    <clipPath id="60776aa590"><path d="M 0.0820312 0 L 299.582031 0 L 299.582031 341.726562 L 0.0820312 341.726562 Z M 0.0820312 0 " clip-rule="nonzero"/></clipPath>
    <clipPath id="8d15d05eeb"><path d="M 160.886719 3.027344 L 288.53125 77.292969 C 295.375 81.273438 299.582031 88.59375 299.582031 96.511719 L 299.582031 245.191406 C 299.582031 253.109375 295.375 260.429688 288.53125 264.410156 L 160.886719 338.675781 C 154.054688 342.652344 145.613281 346.652344 138.78125 338.675781 L 11.132812 264.410156 C 4.292969 260.429688 0.0820312 253.109375 0.0820312 245.191406 L 0.0820312 96.511719 C 0.0820312 88.59375 4.292969 81.273438 11.132812 77.292969 L 138.78125 3.027344 C 145.613281 -0.949219 154.054688 -0.949219 160.886719 3.027344 Z M 160.886719 3.027344 " clip-rule="nonzero"/></clipPath>
    <clipPath id="2c51a975e9"><rect x="0" width="300" y="0" height="342"/></clipPath>
    <clipPath id="382994359b"><rect x="0" width="300" y="0" height="350"/></clipPath>
    <clipPath id="b9ebc6e2c9"><path d="M 0.832031 0.773438 L 384.992188 0.773438 L 384.992188 384.929688 L 0.832031 384.929688 Z M 0.832031 0.773438 " clip-rule="nonzero"/></clipPath>
    <clipPath id="1f29609148"><path d="M 192.914062 0.773438 C 86.828125 0.773438 0.832031 86.769531 0.832031 192.851562 C 0.832031 298.933594 86.828125 384.929688 192.914062 384.929688 C 298.933594 384.929688 384.992188 298.933594 384.992188 192.851562 C 384.992188 86.769531 298.996094 0.773438 192.914062 0.773438 Z M 192.914062 0.773438 " clip-rule="nonzero"/></clipPath>
    <clipPath id="e1fb3c7bf9"><path d="M 0.832031 0.773438 L 384.992188 0.773438 L 384.992188 384.929688 L 0.832031 384.929688 Z M 0.832031 0.773438 " clip-rule="nonzero"/></clipPath>
    <clipPath id="bb5e52a723"><path d="M 192.914062 0.773438 C 86.828125 0.773438 0.832031 86.769531 0.832031 192.851562 C 0.832031 298.933594 86.828125 384.929688 192.914062 384.929688 C 298.996094 384.929688 384.992188 298.933594 384.992188 192.851562 C 384.992188 86.769531 298.996094 0.773438 192.914062 0.773438 Z M 192.914062 0.773438 " clip-rule="nonzero"/></clipPath>
    <clipPath id="8452a27590"><rect x="0" width="385" y="0" height="385"/></clipPath>
    <clipPath id="8f74af28f4"><rect x="0" width="385" y="0" height="386"/></clipPath>
    <clipPath id="7bd637d8cc"><path d="M 0.359375 0.296875 L 315.464844 0.296875 L 315.464844 315.40625 L 0.359375 315.40625 Z M 0.359375 0.296875 " clip-rule="nonzero"/></clipPath>
    <clipPath id="4ad2fc5689"><path d="M 157.914062 0.296875 C 70.898438 0.296875 0.359375 70.835938 0.359375 157.851562 C 0.359375 244.867188 70.898438 315.40625 157.914062 315.40625 C 244.925781 315.40625 315.464844 244.867188 315.464844 157.851562 C 315.464844 70.835938 244.925781 0.296875 157.914062 0.296875 Z M 157.914062 0.296875 " clip-rule="nonzero"/></clipPath>
    <clipPath id="76b201c290"><path d="M 0.359375 0.296875 L 315.464844 0.296875 L 315.464844 315.40625 L 0.359375 315.40625 Z M 0.359375 0.296875 " clip-rule="nonzero"/></clipPath>
    <clipPath id="8abe78d7ce"><path d="M 157.914062 0.296875 C 70.898438 0.296875 0.359375 70.835938 0.359375 157.851562 C 0.359375 244.867188 70.898438 315.40625 157.914062 315.40625 C 244.925781 315.40625 315.464844 244.867188 315.464844 157.851562 C 315.464844 70.835938 244.925781 0.296875 157.914062 0.296875 Z M 157.914062 0.296875 " clip-rule="nonzero"/></clipPath>
    <clipPath id="89e3667b6c"><rect x="0" width="316" y="0" height="316"/></clipPath>
    <clipPath id="fcd2685af9"><rect x="0" width="316" y="0" height="316"/></clipPath>
    <clipPath id="e91d1fe082"><rect x="0" width="295" y="0" height="104"/></clipPath>
    <clipPath id="fced0e145a"><rect x="0" width="808" y="0" height="809"/></clipPath>
    
    <mask id="hole-mask">
      <rect x="0" y="0" width="1440" height="810" fill="white" />
      <!-- Hexagon Hole -->
      <g transform="matrix(1, 0, 0, 1, 254, 230)">
        <g clip-path="url(#382994359b)">
          <g clip-path="url(#22b9c6f5ab)">
            <g clip-path="url(#9a3b736deb)">
              <g transform="matrix(1, 0, 0, 1, 0, 4)">
                <g clip-path="url(#2c51a975e9)">
                  <g clip-path="url(#60776aa590)">
                    <g clip-path="url(#8d15d05eeb)">
                      <path fill="black" d="M 0.0820312 -3.40625 L 299.582031 -3.40625 L 299.582031 345.234375 L 0.0820312 345.234375 Z M 0.0820312 -3.40625 " fill-opacity="1" fill-rule="nonzero"/>
                    </g>
                  </g>
                </g>
              </g>
            </g>
          </g>
        </g>
      </g>
      <!-- Ring Hole (Nudged left and enlarged to ensure complete cut) -->
      <g transform="matrix(1.02, 0, 0, 1.02, 398, 208)">
        <g clip-path="url(#8f74af28f4)">
          <g clip-path="url(#b9ebc6e2c9)">
            <g clip-path="url(#1f29609148)">
              <g transform="matrix(1, 0, 0, 1, 0, 0)">
                <g clip-path="url(#8452a27590)">
                  <g clip-path="url(#e1fb3c7bf9)">
                    <g clip-path="url(#bb5e52a723)">
                      <path fill="black" d="M 0.832031 0.773438 L 384.992188 0.773438 L 384.992188 384.929688 L 0.832031 384.929688 Z M 0.832031 0.773438 " fill-opacity="1" fill-rule="nonzero"/>
                    </g>
                  </g>
                </g>
              </g>
            </g>
          </g>
        </g>
      </g>
      <!-- Inner Circle Mask -->
      <g transform="matrix(1.02, 0, 0, 1.02, 434.8, 243.8)">
        <g clip-path="url(#fcd2685af9)">
          <g clip-path="url(#7bd637d8cc)">
            <g clip-path="url(#4ad2fc5689)">
              <g transform="matrix(1, 0, 0, 1, 0, 0)">
                <g clip-path="url(#89e3667b6c)">
                  <g clip-path="url(#76b201c290)">
                    <g clip-path="url(#8abe78d7ce)">
                      <path fill="white" d="M 0.359375 0.296875 L 315.464844 0.296875 L 315.464844 315.40625 L 0.359375 315.40625 Z M 0.359375 0.296875 " fill-opacity="1" fill-rule="nonzero"/>
                    </g>
                  </g>
                </g>
              </g>
            </g>
          </g>
        </g>
      </g>
    </mask>
  </defs>

  <g transform="matrix(1, 0, 0, 1, 316, 0.000000000000039746)">
    <g clip-path="url(#fced0e145a)">
      <g mask="url(#hole-mask)">
        <g transform="matrix(1, 0, 0, 1, 125, 81)"><g clip-path="url(#97244c3cd6)"><g clip-path="url(#e7b566810a)"><g clip-path="url(#8038e30305)"><g transform="matrix(1, 0, 0, 1, 0, 3)"><g clip-path="url(#f80d67a1dc)"><g clip-path="url(#0924fdde32)"><g clip-path="url(#67a91a1c9b)"><path fill="#000000" d="M 0.871094 -2.597656 L 556.796875 -2.597656 L 556.796875 644.535156 L 0.871094 644.535156 Z M 0.871094 -2.597656 " fill-opacity="1" fill-rule="nonzero"/></g></g></g></g></g></g></g></g>
        <g transform="matrix(1, 0, 0, 1, 192, 158)"><g clip-path="url(#2ec8540957)"><g clip-path="url(#b1af217f49)"><g clip-path="url(#174f4bdc85)"><g transform="matrix(1, 0, 0, 1, 0, 3)"><g clip-path="url(#7e607f551a)"><g clip-path="url(#8b196be77b)"><g clip-path="url(#50037ce33e)"><path fill="#7f7f7f" d="M 0.105469 -2.519531 L 423.558594 -2.519531 L 423.558594 490.402344 L 0.105469 490.402344 Z M 0.105469 -2.519531 " fill-opacity="1" fill-rule="nonzero"/></g></g></g></g></g></g></g></g>
        <g transform="matrix(1.02, 0, 0, 1.02, 434.8, 243.8)"><g clip-path="url(#fcd2685af9)"><g clip-path="url(#7bd637d8cc)"><g clip-path="url(#4ad2fc5689)"><g transform="matrix(1, 0, 0, 1, 0, 0)"><g clip-path="url(#89e3667b6c)"><g clip-path="url(#76b201c290)"><g clip-path="url(#8abe78d7ce)"><path fill="#000000" d="M 0.359375 0.296875 L 315.464844 0.296875 L 315.464844 315.40625 L 0.359375 315.40625 Z M 0.359375 0.296875 " fill-opacity="1" fill-rule="nonzero"/></g></g></g></g></g></g></g></g>
      </g>
      <g transform="matrix(1, 0, 0, 1, 451, 344)">
        <g clip-path="url(#e91d1fe082)">
          <g fill="#ffffff" fill-opacity="1">
            <g transform="translate(2.453424, 79.926835)"><path d="M 28.515625 -41.4375 C 30.023438 -41.4375 31.273438 -41.328125 32.265625 -41.109375 L 31.4375 -30.703125 C 30.53125 -30.941406 29.4375 -31.0625 28.15625 -31.0625 C 24.613281 -31.0625 21.851562 -30.148438 19.875 -28.328125 C 17.90625 -26.515625 16.921875 -23.972656 16.921875 -20.703125 L 16.921875 0 L 5.828125 0 L 5.828125 -40.671875 L 14.21875 -40.671875 L 15.859375 -33.828125 L 16.40625 -33.828125 C 17.664062 -36.109375 19.367188 -37.945312 21.515625 -39.34375 C 23.660156 -40.738281 25.992188 -41.4375 28.515625 -41.4375 Z M 28.515625 -41.4375 "/></g>
            <g transform="translate(36.283642, 79.926835)"><path d="M 14.65625 -20.40625 C 14.65625 -16.382812 15.316406 -13.34375 16.640625 -11.28125 C 17.960938 -9.21875 20.113281 -8.1875 23.09375 -8.1875 C 26.050781 -8.1875 28.179688 -9.207031 29.484375 -11.25 C 30.785156 -13.300781 31.4375 -16.351562 31.4375 -20.40625 C 31.4375 -24.4375 30.78125 -27.457031 29.46875 -29.46875 C 28.15625 -31.476562 26.007812 -32.484375 23.03125 -32.484375 C 20.070312 -32.484375 17.9375 -31.484375 16.625 -29.484375 C 15.3125 -27.484375 14.65625 -24.457031 14.65625 -20.40625 Z M 42.78125 -20.40625 C 42.78125 -13.789062 41.03125 -8.613281 37.53125 -4.875 C 34.039062 -1.132812 29.179688 0.734375 22.953125 0.734375 C 19.046875 0.734375 15.601562 -0.117188 12.625 -1.828125 C 9.644531 -3.546875 7.351562 -6.003906 5.75 -9.203125 C 4.144531 -12.398438 3.34375 -16.132812 3.34375 -20.40625 C 3.34375 -27.050781 5.078125 -32.21875 8.546875 -35.90625 C 12.015625 -39.59375 16.890625 -41.4375 23.171875 -41.4375 C 27.078125 -41.4375 30.519531 -40.585938 33.5 -38.890625 C 36.488281 -37.191406 38.78125 -34.753906 40.375 -31.578125 C 41.976562 -28.398438 42.78125 -24.675781 42.78125 -20.40625 Z M 42.78125 -20.40625 "/></g>
            <g transform="translate(82.409144, 79.926835)"><path d="M 34.1875 -12.078125 C 34.1875 -7.910156 32.738281 -4.734375 29.84375 -2.546875 C 26.945312 -0.359375 22.613281 0.734375 16.84375 0.734375 C 13.882812 0.734375 11.359375 0.53125 9.265625 0.125 C 7.179688 -0.269531 5.234375 -0.859375 3.421875 -1.640625 L 3.421875 -10.796875 C 5.484375 -9.828125 7.804688 -9.015625 10.390625 -8.359375 C 12.972656 -7.710938 15.242188 -7.390625 17.203125 -7.390625 C 21.234375 -7.390625 23.25 -8.550781 23.25 -10.875 C 23.25 -11.75 22.976562 -12.457031 22.4375 -13 C 21.90625 -13.550781 20.984375 -14.171875 19.671875 -14.859375 C 18.367188 -15.546875 16.625 -16.351562 14.4375 -17.28125 C 11.3125 -18.59375 9.015625 -19.804688 7.546875 -20.921875 C 6.078125 -22.035156 5.007812 -23.3125 4.34375 -24.75 C 3.675781 -26.195312 3.34375 -27.972656 3.34375 -30.078125 C 3.34375 -33.691406 4.742188 -36.488281 7.546875 -38.46875 C 10.347656 -40.445312 14.320312 -41.4375 19.46875 -41.4375 C 24.363281 -41.4375 29.128906 -40.367188 33.765625 -38.234375 L 30.40625 -30.234375 C 28.375 -31.097656 26.472656 -31.8125 24.703125 -32.375 C 22.929688 -32.9375 21.125 -33.21875 19.28125 -33.21875 C 16.007812 -33.21875 14.375 -32.332031 14.375 -30.5625 C 14.375 -29.5625 14.898438 -28.695312 15.953125 -27.96875 C 17.003906 -27.238281 19.3125 -26.160156 22.875 -24.734375 C 26.050781 -23.453125 28.378906 -22.253906 29.859375 -21.140625 C 31.335938 -20.023438 32.425781 -18.738281 33.125 -17.28125 C 33.832031 -15.820312 34.1875 -14.085938 34.1875 -12.078125 Z M 34.1875 -12.078125 "/></g>
            <g transform="translate(119.440501, 79.926835)"><path d="M 22.328125 0.734375 C 16.554688 0.734375 12.085938 -1.039062 8.921875 -4.59375 C 5.765625 -8.15625 4.1875 -13.1875 4.1875 -19.6875 C 4.1875 -26.351562 5.789062 -31.503906 9 -35.140625 C 12.21875 -38.773438 16.796875 -40.59375 22.734375 -40.59375 C 24.648438 -40.59375 26.566406 -40.382812 28.484375 -39.96875 C 30.398438 -39.5625 31.90625 -39.078125 33 -38.515625 L 31.140625 -33.390625 C 29.804688 -33.921875 28.347656 -34.363281 26.765625 -34.71875 C 25.191406 -35.070312 23.800781 -35.25 22.59375 -35.25 C 14.488281 -35.25 10.4375 -30.082031 10.4375 -19.75 C 10.4375 -14.851562 11.425781 -11.09375 13.40625 -8.46875 C 15.382812 -5.851562 18.3125 -4.546875 22.1875 -4.546875 C 25.507812 -4.546875 28.914062 -5.257812 32.40625 -6.6875 L 32.40625 -1.34375 C 29.738281 0.0390625 26.378906 0.734375 22.328125 0.734375 Z M 22.328125 0.734375 "/></g>
            <g transform="translate(154.907665, 79.926835)"><path d="M 40.8125 -19.96875 C 40.8125 -13.46875 39.175781 -8.390625 35.90625 -4.734375 C 32.632812 -1.085938 28.109375 0.734375 22.328125 0.734375 C 18.765625 0.734375 15.597656 -0.101562 12.828125 -1.78125 C 10.066406 -3.457031 7.9375 -5.859375 6.4375 -8.984375 C 4.9375 -12.109375 4.1875 -15.769531 4.1875 -19.96875 C 4.1875 -26.46875 5.8125 -31.53125 9.0625 -35.15625 C 12.3125 -38.78125 16.820312 -40.59375 22.59375 -40.59375 C 28.164062 -40.59375 32.59375 -38.738281 35.875 -35.03125 C 39.164062 -31.320312 40.8125 -26.300781 40.8125 -19.96875 Z M 10.4375 -19.96875 C 10.4375 -14.875 11.453125 -10.992188 13.484375 -8.328125 C 15.523438 -5.660156 18.523438 -4.328125 22.484375 -4.328125 C 26.429688 -4.328125 29.429688 -5.65625 31.484375 -8.3125 C 33.535156 -10.96875 34.5625 -14.851562 34.5625 -19.96875 C 34.5625 -25.039062 33.535156 -28.890625 31.484375 -31.515625 C 29.429688 -34.148438 26.40625 -35.46875 22.40625 -35.46875 C 18.457031 -35.46875 15.472656 -34.171875 13.453125 -31.578125 C 11.441406 -28.984375 10.4375 -25.113281 10.4375 -19.96875 Z M 10.4375 -19.96875 "/></g>
            <g transform="translate(199.905494, 79.926835)"><path d="M 33.546875 -5.34375 L 33.21875 -5.34375 C 30.425781 -1.289062 26.253906 0.734375 20.703125 0.734375 C 15.484375 0.734375 11.425781 -1.046875 8.53125 -4.609375 C 5.632812 -8.179688 4.1875 -13.253906 4.1875 -19.828125 C 4.1875 -26.398438 5.640625 -31.503906 8.546875 -35.140625 C 11.453125 -38.773438 15.503906 -40.59375 20.703125 -40.59375 C 26.109375 -40.59375 30.253906 -38.628906 33.140625 -34.703125 L 33.609375 -34.703125 L 33.359375 -37.578125 L 33.21875 -40.375 L 33.21875 -56.609375 L 39.25 -56.609375 L 39.25 0 L 34.34375 0 Z M 21.46875 -4.328125 C 25.582031 -4.328125 28.566406 -5.445312 30.421875 -7.6875 C 32.285156 -9.9375 33.21875 -13.554688 33.21875 -18.546875 L 33.21875 -19.828125 C 33.21875 -25.472656 32.273438 -29.503906 30.390625 -31.921875 C 28.515625 -34.335938 25.515625 -35.546875 21.390625 -35.546875 C 17.847656 -35.546875 15.132812 -34.164062 13.25 -31.40625 C 11.375 -28.65625 10.4375 -24.769531 10.4375 -19.75 C 10.4375 -14.65625 11.367188 -10.8125 13.234375 -8.21875 C 15.109375 -5.625 17.851562 -4.328125 21.46875 -4.328125 Z M 21.46875 -4.328125 "/></g>
            <g transform="translate(245.5581, 79.926835)"><path d="M 23.25 0.734375 C 17.351562 0.734375 12.703125 -1.0625 9.296875 -4.65625 C 5.890625 -8.25 4.1875 -13.234375 4.1875 -19.609375 C 4.1875 -26.035156 5.765625 -31.140625 8.921875 -34.921875 C 12.085938 -38.703125 16.34375 -40.59375 21.6875 -40.59375 C 26.675781 -40.59375 30.625 -38.945312 33.53125 -35.65625 C 36.445312 -32.375 37.90625 -28.039062 37.90625 -22.65625 L 37.90625 -18.84375 L 10.4375 -18.84375 C 10.5625 -14.164062 11.742188 -10.613281 13.984375 -8.1875 C 16.234375 -5.757812 19.394531 -4.546875 23.46875 -4.546875 C 27.757812 -4.546875 32 -5.441406 36.1875 -7.234375 L 36.1875 -1.859375 C 34.0625 -0.929688 32.046875 -0.269531 30.140625 0.125 C 28.234375 0.53125 25.9375 0.734375 23.25 0.734375 Z M 21.609375 -35.546875 C 18.410156 -35.546875 15.859375 -34.5 13.953125 -32.40625 C 12.046875 -30.320312 10.921875 -27.4375 10.578125 -23.75 L 31.4375 -23.75 C 31.4375 -27.5625 30.585938 -30.476562 28.890625 -32.5 C 27.191406 -34.53125 24.765625 -35.546875 21.609375 -35.546875 Z M 21.609375 -35.546875 "/></g>
          </g>
        </g>
      </g>
    </g>
  </g>
</svg>
