<svg xmlns="http://www.w3.org/2000/svg" xmlns:xlink="http://www.w3.org/1999/xlink" zoomAndPan="magnify" viewBox="196 314 1047 182" preserveAspectRatio="xMidYMid meet" version="1.0"><defs><g/><clipPath id="5722b51fdc"><path d="M 196 314.25 L 1243 314.25 L 1243 495.75 L 196 495.75 Z M 196 314.25 " clip-rule="nonzero"/></clipPath><clipPath id="b67c6971a3"><path d="M 0.320312 0.25 L 1046.960938 0.25 L 1046.960938 181.75 L 0.320312 181.75 Z M 0.320312 0.25 " clip-rule="nonzero"/></clipPath><clipPath id="e28ca0aed4"><rect x="0" width="1047" y="0" height="182"/></clipPath><clipPath id="5b0f5f25e2"><rect x="0" width="1047" y="0" height="182"/></clipPath></defs><g clip-path="url(#5722b51fdc)"><g transform="matrix(1, 0, 0, 1, 196, 314)"><g clip-path="url(#5b0f5f25e2)"><g clip-path="url(#b67c6971a3)"><g transform="matrix(1, 0, 0, 1, 0.000000000000028422, 0.000000000000056843)"><g clip-path="url(#e28ca0aed4)"><g fill="currentColor" fill-opacity="1"><g transform="translate(0.94022, 146.274953)"><g><path d="M 57.171875 -83.0625 C 60.179688 -83.0625 62.6875 -82.84375 64.6875 -82.40625 L 63 -61.546875 C 61.207031 -62.035156 59.019531 -62.28125 56.4375 -62.28125 C 49.34375 -62.28125 43.8125 -60.457031 39.84375 -56.8125 C 35.882812 -53.164062 33.90625 -48.0625 33.90625 -41.5 L 33.90625 0 L 11.671875 0 L 11.671875 -81.53125 L 28.515625 -81.53125 L 31.796875 -67.8125 L 32.890625 -67.8125 C 35.410156 -72.382812 38.820312 -76.066406 43.125 -78.859375 C 47.4375 -81.660156 52.117188 -83.0625 57.171875 -83.0625 Z M 57.171875 -83.0625 "/></g></g></g><g fill="currentColor" fill-opacity="1"><g transform="translate(68.752515, 146.274953)"><g><path d="M 29.390625 -40.90625 C 29.390625 -32.832031 30.710938 -26.726562 33.359375 -22.59375 C 36.015625 -18.46875 40.332031 -16.40625 46.3125 -16.40625 C 52.238281 -16.40625 56.5 -18.457031 59.09375 -22.5625 C 61.695312 -26.675781 63 -32.789062 63 -40.90625 C 63 -48.976562 61.6875 -55.03125 59.0625 -59.0625 C 56.4375 -63.101562 52.132812 -65.125 46.15625 -65.125 C 40.226562 -65.125 35.953125 -63.117188 33.328125 -59.109375 C 30.703125 -55.097656 29.390625 -49.03125 29.390625 -40.90625 Z M 85.75 -40.90625 C 85.75 -27.632812 82.25 -17.253906 75.25 -9.765625 C 68.25 -2.285156 58.503906 1.453125 46.015625 1.453125 C 38.179688 1.453125 31.273438 -0.257812 25.296875 -3.6875 C 19.316406 -7.113281 14.722656 -12.035156 11.515625 -18.453125 C 8.304688 -24.867188 6.703125 -32.351562 6.703125 -40.90625 C 6.703125 -54.226562 10.175781 -64.582031 17.125 -71.96875 C 24.082031 -79.363281 33.859375 -83.0625 46.453125 -83.0625 C 54.273438 -83.0625 61.175781 -81.359375 67.15625 -77.953125 C 73.132812 -74.546875 77.726562 -69.660156 80.9375 -63.296875 C 84.144531 -56.929688 85.75 -49.46875 85.75 -40.90625 Z M 85.75 -40.90625 "/></g></g></g><g fill="currentColor" fill-opacity="1"><g transform="translate(161.210569, 146.274953)"><g><path d="M 68.546875 -24.203125 C 68.546875 -15.847656 65.640625 -9.484375 59.828125 -5.109375 C 54.023438 -0.734375 45.335938 1.453125 33.765625 1.453125 C 27.828125 1.453125 22.769531 1.050781 18.59375 0.25 C 14.414062 -0.550781 10.503906 -1.726562 6.859375 -3.28125 L 6.859375 -21.65625 C 10.984375 -19.707031 15.632812 -18.078125 20.8125 -16.765625 C 25.988281 -15.453125 30.546875 -14.796875 34.484375 -14.796875 C 42.554688 -14.796875 46.59375 -17.128906 46.59375 -21.796875 C 46.59375 -23.546875 46.054688 -24.96875 44.984375 -26.0625 C 43.921875 -27.15625 42.078125 -28.394531 39.453125 -29.78125 C 36.828125 -31.164062 33.328125 -32.785156 28.953125 -34.640625 C 22.679688 -37.265625 18.070312 -39.691406 15.125 -41.921875 C 12.1875 -44.160156 10.046875 -46.726562 8.703125 -49.625 C 7.367188 -52.519531 6.703125 -56.082031 6.703125 -60.3125 C 6.703125 -67.550781 9.507812 -73.148438 15.125 -77.109375 C 20.738281 -81.078125 28.703125 -83.0625 39.015625 -83.0625 C 48.835938 -83.0625 58.390625 -80.921875 67.671875 -76.640625 L 60.96875 -60.59375 C 56.882812 -62.34375 53.066406 -63.773438 49.515625 -64.890625 C 45.960938 -66.015625 42.34375 -66.578125 38.65625 -66.578125 C 32.082031 -66.578125 28.796875 -64.800781 28.796875 -61.25 C 28.796875 -59.257812 29.851562 -57.535156 31.96875 -56.078125 C 34.082031 -54.617188 38.71875 -52.457031 45.875 -49.59375 C 52.238281 -47.007812 56.898438 -44.597656 59.859375 -42.359375 C 62.828125 -40.128906 65.015625 -37.554688 66.421875 -34.640625 C 67.835938 -31.722656 68.546875 -28.242188 68.546875 -24.203125 Z M 68.546875 -24.203125 "/></g></g></g><g fill="currentColor" fill-opacity="1"><g transform="translate(235.441672, 146.274953)"><g><path d="M 44.78125 1.453125 C 33.207031 1.453125 24.25 -2.101562 17.90625 -9.21875 C 11.5625 -16.34375 8.390625 -26.421875 8.390625 -39.453125 C 8.390625 -52.816406 11.609375 -63.144531 18.046875 -70.4375 C 24.484375 -77.726562 33.660156 -81.375 45.578125 -81.375 C 49.421875 -81.375 53.257812 -80.960938 57.09375 -80.140625 C 60.9375 -79.316406 63.953125 -78.34375 66.140625 -77.21875 L 62.421875 -66.9375 C 59.742188 -68.007812 56.828125 -68.894531 53.671875 -69.59375 C 50.515625 -70.300781 47.71875 -70.65625 45.28125 -70.65625 C 29.039062 -70.65625 20.921875 -60.300781 20.921875 -39.59375 C 20.921875 -29.769531 22.898438 -22.234375 26.859375 -16.984375 C 30.828125 -11.734375 36.703125 -9.109375 44.484375 -9.109375 C 51.140625 -9.109375 57.96875 -10.546875 64.96875 -13.421875 L 64.96875 -2.703125 C 59.625 0.0664062 52.894531 1.453125 44.78125 1.453125 Z M 44.78125 1.453125 "/></g></g></g><g fill="currentColor" fill-opacity="1"><g transform="translate(306.535209, 146.274953)"><g><path d="M 81.8125 -40.03125 C 81.8125 -27 78.53125 -16.828125 71.96875 -9.515625 C 65.40625 -2.203125 56.34375 1.453125 44.78125 1.453125 C 37.625 1.453125 31.273438 -0.222656 25.734375 -3.578125 C 20.191406 -6.929688 15.914062 -11.742188 12.90625 -18.015625 C 9.894531 -24.285156 8.390625 -31.625 8.390625 -40.03125 C 8.390625 -53.0625 11.644531 -63.207031 18.15625 -70.46875 C 24.664062 -77.738281 33.707031 -81.375 45.28125 -81.375 C 56.46875 -81.375 65.351562 -77.65625 71.9375 -70.21875 C 78.519531 -62.78125 81.8125 -52.71875 81.8125 -40.03125 Z M 20.921875 -40.03125 C 20.921875 -29.820312 22.960938 -22.039062 27.046875 -16.6875 C 31.128906 -11.34375 37.132812 -8.671875 45.0625 -8.671875 C 52.988281 -8.671875 59.003906 -11.332031 63.109375 -16.65625 C 67.222656 -21.976562 69.28125 -29.769531 69.28125 -40.03125 C 69.28125 -50.195312 67.222656 -57.914062 63.109375 -63.1875 C 59.003906 -68.457031 52.941406 -71.09375 44.921875 -71.09375 C 36.992188 -71.09375 31.007812 -68.492188 26.96875 -63.296875 C 22.9375 -58.097656 20.921875 -50.34375 20.921875 -40.03125 Z M 20.921875 -40.03125 "/></g></g></g><g fill="currentColor" fill-opacity="1"><g transform="translate(396.732855, 146.274953)"><g><path d="M 67.234375 -10.71875 L 66.578125 -10.71875 C 60.984375 -2.601562 52.625 1.453125 41.5 1.453125 C 31.039062 1.453125 22.90625 -2.117188 17.09375 -9.265625 C 11.289062 -16.410156 8.390625 -26.570312 8.390625 -39.75 C 8.390625 -52.914062 11.304688 -63.144531 17.140625 -70.4375 C 22.972656 -77.726562 31.09375 -81.375 41.5 -81.375 C 52.332031 -81.375 60.644531 -77.4375 66.4375 -69.5625 L 67.375 -69.5625 L 66.875 -75.328125 L 66.578125 -80.9375 L 66.578125 -113.46875 L 78.6875 -113.46875 L 78.6875 0 L 68.84375 0 Z M 43.03125 -8.671875 C 51.289062 -8.671875 57.28125 -10.921875 61 -15.421875 C 64.71875 -19.921875 66.578125 -27.175781 66.578125 -37.1875 L 66.578125 -39.75 C 66.578125 -51.070312 64.691406 -59.148438 60.921875 -63.984375 C 57.160156 -68.828125 51.144531 -71.25 42.875 -71.25 C 35.78125 -71.25 30.347656 -68.488281 26.578125 -62.96875 C 22.804688 -57.445312 20.921875 -49.65625 20.921875 -39.59375 C 20.921875 -29.382812 22.789062 -21.675781 26.53125 -16.46875 C 30.28125 -11.269531 35.78125 -8.671875 43.03125 -8.671875 Z M 43.03125 -8.671875 "/></g></g></g><g fill="currentColor" fill-opacity="1"><g transform="translate(488.242996, 146.274953)"><g><path d="M 46.59375 1.453125 C 34.78125 1.453125 25.457031 -2.140625 18.625 -9.328125 C 11.800781 -16.523438 8.390625 -26.519531 8.390625 -39.3125 C 8.390625 -52.1875 11.5625 -62.414062 17.90625 -70 C 24.25 -77.582031 32.769531 -81.375 43.46875 -81.375 C 53.476562 -81.375 61.398438 -78.082031 67.234375 -71.5 C 73.066406 -64.914062 75.984375 -56.226562 75.984375 -45.4375 L 75.984375 -37.78125 L 20.921875 -37.78125 C 21.171875 -28.394531 23.539062 -21.269531 28.03125 -16.40625 C 32.53125 -11.539062 38.863281 -9.109375 47.03125 -9.109375 C 55.632812 -9.109375 64.144531 -10.910156 72.5625 -14.515625 L 72.5625 -3.71875 C 68.28125 -1.875 64.226562 -0.550781 60.40625 0.25 C 56.59375 1.050781 51.988281 1.453125 46.59375 1.453125 Z M 43.3125 -71.25 C 36.894531 -71.25 31.773438 -69.15625 27.953125 -64.96875 C 24.140625 -60.789062 21.894531 -55.007812 21.21875 -47.625 L 63 -47.625 C 63 -55.25 61.296875 -61.09375 57.890625 -65.15625 C 54.492188 -69.21875 49.632812 -71.25 43.3125 -71.25 Z M 43.3125 -71.25 "/></g></g></g><g fill="currentColor" fill-opacity="1"><g transform="translate(572.023993, 146.274953)"><g/></g></g><g fill="currentColor" fill-opacity="1"><g transform="translate(610.815543, 146.274953)"><g><path d="M 64.390625 -21.796875 C 64.390625 -14.359375 61.617188 -8.625 56.078125 -4.59375 C 50.535156 -0.5625 42.753906 1.453125 32.734375 1.453125 C 22.140625 1.453125 13.878906 -0.222656 7.953125 -3.578125 L 7.953125 -14.796875 C 11.785156 -12.859375 15.898438 -11.328125 20.296875 -10.203125 C 24.703125 -9.085938 28.945312 -8.53125 33.03125 -8.53125 C 39.351562 -8.53125 44.210938 -9.535156 47.609375 -11.546875 C 51.015625 -13.566406 52.71875 -16.644531 52.71875 -20.78125 C 52.71875 -23.894531 51.367188 -26.554688 48.671875 -28.765625 C 45.972656 -30.972656 40.710938 -33.585938 32.890625 -36.609375 C 25.453125 -39.378906 20.164062 -41.796875 17.03125 -43.859375 C 13.894531 -45.929688 11.5625 -48.28125 10.03125 -50.90625 C 8.5 -53.53125 7.734375 -56.664062 7.734375 -60.3125 C 7.734375 -66.820312 10.378906 -71.957031 15.671875 -75.71875 C 20.972656 -79.488281 28.242188 -81.375 37.484375 -81.375 C 46.085938 -81.375 54.5 -79.625 62.71875 -76.125 L 58.40625 -66.28125 C 50.382812 -69.59375 43.117188 -71.25 36.609375 -71.25 C 30.867188 -71.25 26.539062 -70.347656 23.625 -68.546875 C 20.707031 -66.742188 19.25 -64.265625 19.25 -61.109375 C 19.25 -58.972656 19.796875 -57.148438 20.890625 -55.640625 C 21.984375 -54.128906 23.742188 -52.691406 26.171875 -51.328125 C 28.609375 -49.972656 33.28125 -48.007812 40.1875 -45.4375 C 49.664062 -41.976562 56.066406 -38.5 59.390625 -35 C 62.722656 -31.5 64.390625 -27.097656 64.390625 -21.796875 Z M 64.390625 -21.796875 "/></g></g></g><g fill="currentColor" fill-opacity="1"><g transform="translate(682.054913, 146.274953)"><g><path d="M 38.65625 -8.53125 C 40.789062 -8.53125 42.851562 -8.6875 44.84375 -9 C 46.84375 -9.320312 48.425781 -9.648438 49.59375 -9.984375 L 49.59375 -0.734375 C 48.28125 -0.0976562 46.347656 0.421875 43.796875 0.828125 C 41.242188 1.242188 38.941406 1.453125 36.890625 1.453125 C 21.429688 1.453125 13.703125 -6.6875 13.703125 -22.96875 L 13.703125 -70.515625 L 2.265625 -70.515625 L 2.265625 -76.34375 L 13.703125 -81.375 L 18.8125 -98.4375 L 25.8125 -98.4375 L 25.8125 -79.921875 L 49 -79.921875 L 49 -70.515625 L 25.8125 -70.515625 L 25.8125 -23.484375 C 25.8125 -18.671875 26.953125 -14.972656 29.234375 -12.390625 C 31.523438 -9.816406 34.664062 -8.53125 38.65625 -8.53125 Z M 38.65625 -8.53125 "/></g></g></g><g fill="currentColor" fill-opacity="1"><g transform="translate(734.773503, 146.274953)"><g><path d="M 24.203125 -79.921875 L 24.203125 -28.078125 C 24.203125 -21.554688 25.6875 -16.691406 28.65625 -13.484375 C 31.625 -10.273438 36.269531 -8.671875 42.59375 -8.671875 C 50.945312 -8.671875 57.054688 -10.957031 60.921875 -15.53125 C 64.785156 -20.101562 66.71875 -27.566406 66.71875 -37.921875 L 66.71875 -79.921875 L 78.828125 -79.921875 L 78.828125 0 L 68.84375 0 L 67.09375 -10.71875 L 66.4375 -10.71875 C 63.957031 -6.78125 60.515625 -3.765625 56.109375 -1.671875 C 51.710938 0.410156 46.695312 1.453125 41.0625 1.453125 C 31.332031 1.453125 24.046875 -0.851562 19.203125 -5.46875 C 14.367188 -10.082031 11.953125 -17.472656 11.953125 -27.640625 L 11.953125 -79.921875 Z M 24.203125 -79.921875 "/></g></g></g><g fill="currentColor" fill-opacity="1"><g transform="translate(826.429477, 146.274953)"><g><path d="M 67.234375 -10.71875 L 66.578125 -10.71875 C 60.984375 -2.601562 52.625 1.453125 41.5 1.453125 C 31.039062 1.453125 22.90625 -2.117188 17.09375 -9.265625 C 11.289062 -16.410156 8.390625 -26.570312 8.390625 -39.75 C 8.390625 -52.914062 11.304688 -63.144531 17.140625 -70.4375 C 22.972656 -77.726562 31.09375 -81.375 41.5 -81.375 C 52.332031 -81.375 60.644531 -77.4375 66.4375 -69.5625 L 67.375 -69.5625 L 66.875 -75.328125 L 66.578125 -80.9375 L 66.578125 -113.46875 L 78.6875 -113.46875 L 78.6875 0 L 68.84375 0 Z M 43.03125 -8.671875 C 51.289062 -8.671875 57.28125 -10.921875 61 -15.421875 C 64.71875 -19.921875 66.578125 -27.175781 66.578125 -37.1875 L 66.578125 -39.75 C 66.578125 -51.070312 64.691406 -59.148438 60.921875 -63.984375 C 57.160156 -68.828125 51.144531 -71.25 42.875 -71.25 C 35.78125 -71.25 30.347656 -68.488281 26.578125 -62.96875 C 22.804688 -57.445312 20.921875 -49.65625 20.921875 -39.59375 C 20.921875 -29.382812 22.789062 -21.675781 26.53125 -16.46875 C 30.28125 -11.269531 35.78125 -8.671875 43.03125 -8.671875 Z M 43.03125 -8.671875 "/></g></g></g><g fill="currentColor" fill-opacity="1"><g transform="translate(917.939619, 146.274953)"><g><path d="M 24.9375 0 L 12.828125 0 L 12.828125 -79.921875 L 24.9375 -79.921875 Z M 11.8125 -101.578125 C 11.8125 -104.347656 12.488281 -106.375 13.84375 -107.65625 C 15.207031 -108.945312 16.910156 -109.59375 18.953125 -109.59375 C 20.898438 -109.59375 22.578125 -108.9375 23.984375 -107.625 C 25.398438 -106.3125 26.109375 -104.296875 26.109375 -101.578125 C 26.109375 -98.859375 25.398438 -96.828125 23.984375 -95.484375 C 22.578125 -94.148438 20.898438 -93.484375 18.953125 -93.484375 C 16.910156 -93.484375 15.207031 -94.148438 13.84375 -95.484375 C 12.488281 -96.828125 11.8125 -98.859375 11.8125 -101.578125 Z M 11.8125 -101.578125 "/></g></g></g><g fill="currentColor" fill-opacity="1"><g transform="translate(955.710338, 146.274953)"><g><path d="M 81.8125 -40.03125 C 81.8125 -27 78.53125 -16.828125 71.96875 -9.515625 C 65.40625 -2.203125 56.34375 1.453125 44.78125 1.453125 C 37.625 1.453125 31.273438 -0.222656 25.734375 -3.578125 C 20.191406 -6.929688 15.914062 -11.742188 12.90625 -18.015625 C 9.894531 -24.285156 8.390625 -31.625 8.390625 -40.03125 C 8.390625 -53.0625 11.644531 -63.207031 18.15625 -70.46875 C 24.664062 -77.738281 33.707031 -81.375 45.28125 -81.375 C 56.46875 -81.375 65.351562 -77.65625 71.9375 -70.21875 C 78.519531 -62.78125 81.8125 -52.71875 81.8125 -40.03125 Z M 20.921875 -40.03125 C 20.921875 -29.820312 22.960938 -22.039062 27.046875 -16.6875 C 31.128906 -11.34375 37.132812 -8.671875 45.0625 -8.671875 C 52.988281 -8.671875 59.003906 -11.332031 63.109375 -16.65625 C 67.222656 -21.976562 69.28125 -29.769531 69.28125 -40.03125 C 69.28125 -50.195312 67.222656 -57.914062 63.109375 -63.1875 C 59.003906 -68.457031 52.941406 -71.09375 44.921875 -71.09375 C 36.992188 -71.09375 31.007812 -68.492188 26.96875 -63.296875 C 22.9375 -58.097656 20.921875 -50.34375 20.921875 -40.03125 Z M 20.921875 -40.03125 "/></g></g></g></g></g></g></g></g></g></svg>