<svg xmlns="http://www.w3.org/2000/svg" xmlns:xlink="http://www.w3.org/1999/xlink" zoomAndPan="magnify" viewBox="5 178.5 1431 453" preserveAspectRatio="xMidYMid meet" version="1.0"><defs><g/><clipPath id="01ebd81475"><path d="M 5 178.5 L 1436 178.5 L 1436 631.5 L 5 631.5 Z M 5 178.5 " clip-rule="nonzero"/></clipPath><clipPath id="c4a9a83001"><path d="M 0.519531 0.5 L 1430.921875 0.5 L 1430.921875 453.5 L 0.519531 453.5 Z M 0.519531 0.5 " clip-rule="nonzero"/></clipPath><clipPath id="07d345fda7"><rect x="0" width="1431" y="0" height="454"/></clipPath><clipPath id="f5a600439d"><rect x="0" width="1431" y="0" height="454"/></clipPath></defs><g clip-path="url(#01ebd81475)"><g transform="matrix(1, 0, 0, 1, 5, 178)"><g clip-path="url(#f5a600439d)"><g clip-path="url(#c4a9a83001)"><g transform="matrix(1, 0, 0, 1, 0, 0.000000000000028422)"><g clip-path="url(#07d345fda7)"><g fill="currentColor" fill-opacity="1"><g transform="translate(0.742193, 366.721546)"><g><path d="M 142.96875 -207.703125 C 150.5 -207.703125 156.757812 -207.15625 161.75 -206.0625 L 157.546875 -153.90625 C 153.046875 -155.125 147.578125 -155.734375 141.140625 -155.734375 C 123.390625 -155.734375 109.5625 -151.171875 99.65625 -142.046875 C 89.75 -132.929688 84.796875 -120.164062 84.796875 -103.75 L 84.796875 0 L 29.171875 0 L 29.171875 -203.875 L 71.296875 -203.875 L 79.5 -169.578125 L 82.234375 -169.578125 C 88.554688 -181.015625 97.097656 -190.226562 107.859375 -197.21875 C 118.617188 -204.207031 130.320312 -207.703125 142.96875 -207.703125 Z M 142.96875 -207.703125 "/></g></g></g><g fill="currentColor" fill-opacity="1"><g transform="translate(170.314939, 366.721546)"><g><path d="M 73.484375 -102.296875 C 73.484375 -82.117188 76.796875 -66.863281 83.421875 -56.53125 C 90.046875 -46.195312 100.835938 -41.03125 115.796875 -41.03125 C 130.628906 -41.03125 141.296875 -46.164062 147.796875 -56.4375 C 154.296875 -66.707031 157.546875 -81.992188 157.546875 -102.296875 C 157.546875 -122.472656 154.265625 -137.609375 147.703125 -147.703125 C 141.140625 -157.796875 130.378906 -162.84375 115.421875 -162.84375 C 100.597656 -162.84375 89.898438 -157.828125 83.328125 -147.796875 C 76.765625 -137.765625 73.484375 -122.597656 73.484375 -102.296875 Z M 214.4375 -102.296875 C 214.4375 -69.109375 205.679688 -43.15625 188.171875 -24.4375 C 170.671875 -5.71875 146.300781 3.640625 115.0625 3.640625 C 95.488281 3.640625 78.222656 -0.640625 63.265625 -9.203125 C 48.316406 -17.773438 36.832031 -30.082031 28.8125 -46.125 C 20.789062 -62.175781 16.78125 -80.898438 16.78125 -102.296875 C 16.78125 -135.609375 25.46875 -161.503906 42.84375 -179.984375 C 60.226562 -198.460938 84.664062 -207.703125 116.15625 -207.703125 C 135.726562 -207.703125 152.988281 -203.445312 167.9375 -194.9375 C 182.894531 -186.425781 194.382812 -174.207031 202.40625 -158.28125 C 210.425781 -142.351562 214.4375 -123.691406 214.4375 -102.296875 Z M 214.4375 -102.296875 "/></g></g></g><g fill="currentColor" fill-opacity="1"><g transform="translate(401.517351, 366.721546)"><g><path d="M 171.40625 -60.546875 C 171.40625 -39.628906 164.140625 -23.703125 149.609375 -12.765625 C 135.085938 -1.828125 113.359375 3.640625 84.421875 3.640625 C 69.597656 3.640625 56.957031 2.632812 46.5 0.625 C 36.039062 -1.375 26.253906 -4.316406 17.140625 -8.203125 L 17.140625 -54.15625 C 27.472656 -49.289062 39.113281 -45.21875 52.0625 -41.9375 C 65.007812 -38.65625 76.40625 -37.015625 86.25 -37.015625 C 106.425781 -37.015625 116.515625 -42.847656 116.515625 -54.515625 C 116.515625 -58.898438 115.175781 -62.457031 112.5 -65.1875 C 109.832031 -67.925781 105.210938 -71.023438 98.640625 -74.484375 C 92.078125 -77.953125 83.328125 -81.992188 72.390625 -86.609375 C 56.710938 -93.179688 45.195312 -99.257812 37.84375 -104.84375 C 30.488281 -110.4375 25.140625 -116.847656 21.796875 -124.078125 C 18.453125 -131.316406 16.78125 -140.222656 16.78125 -150.796875 C 16.78125 -168.910156 23.800781 -182.921875 37.84375 -192.828125 C 51.882812 -202.742188 71.789062 -207.703125 97.5625 -207.703125 C 122.113281 -207.703125 146 -202.351562 169.21875 -191.65625 L 152.4375 -151.53125 C 142.226562 -155.90625 132.6875 -159.488281 123.8125 -162.28125 C 114.9375 -165.082031 105.878906 -166.484375 96.640625 -166.484375 C 80.234375 -166.484375 72.03125 -162.046875 72.03125 -153.171875 C 72.03125 -148.191406 74.671875 -143.875 79.953125 -140.21875 C 85.242188 -136.570312 96.828125 -131.164062 114.703125 -124 C 130.628906 -117.550781 142.296875 -111.53125 149.703125 -105.9375 C 157.117188 -100.351562 162.585938 -93.910156 166.109375 -86.609375 C 169.640625 -79.316406 171.40625 -70.628906 171.40625 -60.546875 Z M 171.40625 -60.546875 "/></g></g></g><g fill="currentColor" fill-opacity="1"><g transform="translate(587.141095, 366.721546)"><g><path d="M 111.96875 3.640625 C 83.03125 3.640625 60.628906 -5.257812 44.765625 -23.0625 C 28.898438 -40.875 20.96875 -66.070312 20.96875 -98.65625 C 20.96875 -132.082031 29.019531 -157.910156 45.125 -176.140625 C 61.238281 -194.378906 84.1875 -203.5 113.96875 -203.5 C 123.570312 -203.5 133.175781 -202.460938 142.78125 -200.390625 C 152.382812 -198.328125 159.921875 -195.898438 165.390625 -193.109375 L 156.09375 -167.390625 C 149.40625 -170.066406 142.109375 -172.285156 134.203125 -174.046875 C 126.304688 -175.816406 119.316406 -176.703125 113.234375 -176.703125 C 72.628906 -176.703125 52.328125 -150.804688 52.328125 -99.015625 C 52.328125 -74.460938 57.28125 -55.617188 67.1875 -42.484375 C 77.101562 -29.359375 91.785156 -22.796875 111.234375 -22.796875 C 127.890625 -22.796875 144.96875 -26.378906 162.46875 -33.546875 L 162.46875 -6.75 C 149.101562 0.175781 132.269531 3.640625 111.96875 3.640625 Z M 111.96875 3.640625 "/></g></g></g><g fill="currentColor" fill-opacity="1"><g transform="translate(764.918979, 366.721546)"><g><path d="M 204.59375 -100.109375 C 204.59375 -67.523438 196.382812 -42.085938 179.96875 -23.796875 C 163.5625 -5.503906 140.894531 3.640625 111.96875 3.640625 C 94.09375 3.640625 78.222656 -0.550781 64.359375 -8.9375 C 50.503906 -17.320312 39.804688 -29.351562 32.265625 -45.03125 C 24.734375 -60.71875 20.96875 -79.078125 20.96875 -100.109375 C 20.96875 -132.691406 29.113281 -158.066406 45.40625 -176.234375 C 61.695312 -194.410156 84.304688 -203.5 113.234375 -203.5 C 141.203125 -203.5 163.421875 -194.195312 179.890625 -175.59375 C 196.359375 -157 204.59375 -131.835938 204.59375 -100.109375 Z M 52.328125 -100.109375 C 52.328125 -74.578125 57.429688 -55.125 67.640625 -41.75 C 77.859375 -28.382812 92.875 -21.703125 112.6875 -21.703125 C 132.507812 -21.703125 147.554688 -28.359375 157.828125 -41.671875 C 168.097656 -54.984375 173.234375 -74.460938 173.234375 -100.109375 C 173.234375 -125.515625 168.097656 -144.8125 157.828125 -158 C 147.554688 -171.195312 132.390625 -177.796875 112.328125 -177.796875 C 92.515625 -177.796875 77.5625 -171.289062 67.46875 -158.28125 C 57.375 -145.269531 52.328125 -125.878906 52.328125 -100.109375 Z M 52.328125 -100.109375 "/></g></g></g><g fill="currentColor" fill-opacity="1"><g transform="translate(990.468968, 366.721546)"><g><path d="M 168.125 -26.8125 L 166.484375 -26.8125 C 152.503906 -6.507812 131.59375 3.640625 103.75 3.640625 C 77.613281 3.640625 57.28125 -5.289062 42.75 -23.15625 C 28.226562 -41.03125 20.96875 -66.4375 20.96875 -99.375 C 20.96875 -132.320312 28.257812 -157.910156 42.84375 -176.140625 C 57.4375 -194.378906 77.738281 -203.5 103.75 -203.5 C 130.863281 -203.5 151.65625 -193.65625 166.125 -173.96875 L 168.484375 -173.96875 L 167.21875 -188.375 L 166.484375 -202.40625 L 166.484375 -283.734375 L 196.75 -283.734375 L 196.75 0 L 172.140625 0 Z M 107.59375 -21.703125 C 128.257812 -21.703125 143.238281 -27.320312 152.53125 -38.5625 C 161.832031 -49.8125 166.484375 -67.957031 166.484375 -93 L 166.484375 -99.375 C 166.484375 -127.707031 161.769531 -147.921875 152.34375 -160.015625 C 142.925781 -172.109375 127.882812 -178.15625 107.21875 -178.15625 C 89.46875 -178.15625 75.878906 -171.253906 66.453125 -157.453125 C 57.035156 -143.660156 52.328125 -124.179688 52.328125 -99.015625 C 52.328125 -73.484375 57.007812 -54.210938 66.375 -41.203125 C 75.738281 -28.203125 89.476562 -21.703125 107.59375 -21.703125 Z M 107.59375 -21.703125 "/></g></g></g><g fill="currentColor" fill-opacity="1"><g transform="translate(1219.301011, 366.721546)"><g><path d="M 116.515625 3.640625 C 86.972656 3.640625 63.660156 -5.351562 46.578125 -23.34375 C 29.503906 -41.332031 20.96875 -66.3125 20.96875 -98.28125 C 20.96875 -130.5 28.898438 -156.085938 44.765625 -175.046875 C 60.628906 -194.015625 81.9375 -203.5 108.6875 -203.5 C 133.726562 -203.5 153.539062 -195.257812 168.125 -178.78125 C 182.71875 -162.3125 190.015625 -140.585938 190.015625 -113.609375 L 190.015625 -94.453125 L 52.328125 -94.453125 C 52.941406 -70.992188 58.867188 -53.1875 70.109375 -41.03125 C 81.359375 -28.875 97.191406 -22.796875 117.609375 -22.796875 C 139.128906 -22.796875 160.40625 -27.289062 181.4375 -36.28125 L 181.4375 -9.296875 C 170.738281 -4.679688 160.617188 -1.375 151.078125 0.625 C 141.535156 2.632812 130.015625 3.640625 116.515625 3.640625 Z M 108.3125 -178.15625 C 92.269531 -178.15625 79.472656 -172.925781 69.921875 -162.46875 C 60.378906 -152.019531 54.757812 -137.554688 53.0625 -119.078125 L 157.546875 -119.078125 C 157.546875 -138.160156 153.289062 -152.773438 144.78125 -162.921875 C 136.269531 -173.078125 124.113281 -178.15625 108.3125 -178.15625 Z M 108.3125 -178.15625 "/></g></g></g></g></g></g></g></g></g></svg>