<svg xmlns="http://www.w3.org/2000/svg" width="1024" height="1024" viewBox="0 0 1440 810"><defs><clipPath id="cp1"><path d="M 0.871094 3 L 556.796875 3 L 556.796875 644 L 0.871094 644 Z"/></clipPath></defs><g transform="translate(316, 80)"><path fill="#f2a83b" d="M 414.886719 3.832031 L 670.742188 152.695312 C 677.585938 156.679688 681.796875 163.996094 681.796875 171.914062 L 681.796875 469.789062 C 681.796875 477.703125 677.585938 485.023438 670.742188 489.007812 L 414.886719 637.867188 C 408.054688 641.84375 399.613281 641.84375 392.78125 637.867188 L 136.921875 489.007812 C 130.078125 485.023438 125.871094 477.703125 125.871094 469.789062 L 125.871094 171.914062 C 125.871094 163.996094 130.078125 156.679688 136.921875 152.695312 L 392.78125 3.832031 C 399.613281 -0.140625 408.054688 -0.140625 414.886719 3.832031 Z" /></g></svg>